<svg width="500" height="500" viewBox="0 0 500 500" fill="none" xmlns="http://www.w3.org/2000/svg">
<rect width="500" height="500" fill="white"/>
<path d="M228.525 397.398V386.88L252.484 384.25V380.159C253.068 345.097 253.068 320.554 253.068 306.529V189.071C253.068 171.248 252.776 153.424 251.899 136.186L225.311 133.264V124.79L302.155 102.292L307.122 105.798L309.752 128.881C326.114 111.058 346.567 102 371.403 102C394.193 102 412.601 110.766 426.918 128.589C442.111 147.581 450 173.001 450 205.141C450 236.989 441.527 262.701 424.288 282.278C407.633 300.977 387.181 310.327 362.929 310.327C341.892 310.327 324.361 302.146 310.044 285.492V306.529C310.044 320.262 310.336 345.097 310.628 380.744V383.373L338.386 386.587V397.106L228.525 397.398ZM341.308 285.199C373.156 285.199 388.934 258.903 388.934 206.018C388.934 177.968 384.843 157.515 376.662 144.659C369.357 133.264 358.254 127.42 343.353 127.42C331.373 127.42 320.855 131.511 311.505 139.984V276.434C318.809 282.278 328.744 285.199 341.308 285.199Z" fill="#231815"/>
<path d="M69.2842 282.57L75.42 247.508H50V230.269H78.634L83.309 203.68H57.889V186.441H86.2308L92.3667 152.256H102.009L96.1651 186.441H134.441L140.285 152.256H149.927L143.791 186.441H169.795V203.68H140.577L135.61 230.269H161.614V247.508H132.396L125.968 282.57H117.202L123.338 247.508H85.0621L78.9262 282.57H69.2842ZM87.9839 230.269H126.552L131.227 203.68H92.6589L87.9839 230.269Z" fill="#231815"/>
</svg>
