<svg width="40" height="40" viewBox="0 0 40 40" fill="none" xmlns="http://www.w3.org/2000/svg">
<path d="M29.1002 13.0996H10.9002C10.2002 13.0996 9.7002 13.5996 9.7002 14.2996C9.7002 14.9996 10.2002 15.4996 10.9002 15.4996H29.1002C29.8002 15.4996 30.3002 14.9996 30.3002 14.2996C30.3002 13.5996 29.8002 13.0996 29.1002 13.0996Z" fill="black"/>
<path d="M29.1002 24.5H10.9002C10.2002 24.5 9.7002 25 9.7002 25.7C9.7002 26.4 10.2002 26.9 10.9002 26.9H29.1002C29.8002 26.9 30.3002 26.4 30.3002 25.7C30.3002 25 29.8002 24.5 29.1002 24.5Z" fill="black"/>
<path d="M29.1002 18.8008H10.9002C10.2002 18.8008 9.7002 19.3008 9.7002 20.0008C9.7002 20.7008 10.2002 21.2008 10.9002 21.2008H29.1002C29.8002 21.2008 30.3002 20.7008 30.3002 20.0008C30.3002 19.3008 29.8002 18.8008 29.1002 18.8008Z" fill="black"/>
</svg>
