<?xml version="1.0" encoding="utf-8"?>
<!-- Generator: Adobe Illustrator 23.0.5, SVG Export Plug-In . SVG Version: 6.00 Build 0)  -->
<svg version="1.1" id="圖層_1" xmlns="http://www.w3.org/2000/svg" xmlns:xlink="http://www.w3.org/1999/xlink" x="0px" y="0px"
	 viewBox="0 0 40 40" style="enable-background:new 0 0 40 40;" xml:space="preserve">
<style type="text/css">
	.st0{fill:#FFFFFF;}
</style>
<path class="st0" d="M29.1,13.1L29.1,13.1l-18.2,0v0c-0.7,0-1.2,0.5-1.2,1.2c0,0.7,0.5,1.2,1.2,1.2v0h18.2v0c0.7,0,1.2-0.5,1.2-1.2
	C30.3,13.6,29.8,13.1,29.1,13.1z"/>
<path class="st0" d="M29.1,24.5L29.1,24.5l-18.2,0v0c-0.7,0-1.2,0.5-1.2,1.2c0,0.7,0.5,1.2,1.2,1.2v0h18.2v0c0.7,0,1.2-0.5,1.2-1.2
	C30.3,25,29.8,24.5,29.1,24.5z"/>
<path class="st0" d="M29.1,18.8L29.1,18.8l-18.2,0v0c-0.7,0-1.2,0.5-1.2,1.2c0,0.7,0.5,1.2,1.2,1.2v0h18.2v0c0.7,0,1.2-0.5,1.2-1.2
	S29.8,18.8,29.1,18.8z"/>
</svg>
